<svg width="25" height="26" viewBox="0 0 25 26" fill="none" xmlns="http://www.w3.org/2000/svg">
<path d="M12.5021 22.7944C9.93958 22.7944 9.63749 22.7803 8.63749 22.7348C7.85767 22.7081 7.08794 22.5433 6.36145 22.2473C5.10448 21.7386 4.11055 20.7045 3.62187 19.397C3.34823 18.6387 3.20064 17.8376 3.18541 17.0278C3.12708 15.99 3.12708 15.6498 3.12708 13.0054C3.12708 10.3328 3.14062 10.0208 3.18541 8.9862C3.20097 8.17752 3.34856 7.37746 3.62187 6.6202C4.11002 5.31103 5.10557 4.27606 6.36458 3.76887C7.09233 3.48309 7.86181 3.32919 8.63958 3.31387C9.63437 3.25537 9.96145 3.25537 12.5021 3.25537C15.0854 3.25537 15.3823 3.26945 16.3667 3.31387C17.1464 3.32933 17.918 3.48321 18.6479 3.76887C19.9066 4.27663 20.9019 5.3114 21.3906 6.6202C21.6689 7.3885 21.8172 8.20106 21.8292 9.02195C21.8875 10.0598 21.8875 10.3989 21.8875 13.0422C21.8875 15.6855 21.8729 16.0322 21.8292 17.0581C21.8137 17.8687 21.6657 18.6706 21.3917 19.4295C20.9017 20.7379 19.9063 21.7723 18.6479 22.2809C17.919 22.5649 17.1491 22.7184 16.3708 22.7348C15.376 22.7944 15.05 22.7944 12.5021 22.7944ZM12.4667 4.97029C9.91874 4.97029 9.65416 4.98329 8.65937 5.02987C8.0656 5.03805 7.47757 5.15201 6.92083 5.36679C6.09869 5.69396 5.44814 6.36778 5.1302 7.22145C4.92209 7.80678 4.8125 8.42501 4.80624 9.04904C4.75103 10.0988 4.75103 10.374 4.75103 13.0054C4.75103 15.6054 4.76041 15.9206 4.80624 16.9639C4.81557 17.5816 4.92509 18.1932 5.1302 18.773C5.44861 19.6262 6.09905 20.2995 6.92083 20.6266C7.47719 20.8428 8.06546 20.9568 8.65937 20.9635C9.6677 21.0242 9.93333 21.0242 12.4667 21.0242C15.0219 21.0242 15.2865 21.0112 16.2729 20.9635C16.8671 20.956 17.4556 20.842 18.0125 20.6266C18.8296 20.2966 19.476 19.6249 19.7937 18.7752C20.0015 18.1894 20.111 17.5709 20.1177 16.9465H20.1292C20.174 15.9109 20.174 15.6346 20.174 12.988C20.174 10.3415 20.1625 10.063 20.1177 9.02845C20.1084 8.41144 19.9988 7.80051 19.7937 7.22145C19.4767 6.37058 18.8303 5.69752 18.0125 5.36679C17.4557 5.15092 16.8671 5.03694 16.2729 5.02987C15.2656 4.97029 15.0021 4.97029 12.4667 4.97029ZM12.5021 18.0093C10.5541 18.0106 8.7973 16.7913 8.05089 14.9201C7.30448 13.0489 7.71552 10.8943 9.09232 9.4612C10.4691 8.0281 12.5405 7.59875 14.3404 8.3734C16.1403 9.14805 17.3142 10.9741 17.3146 13C17.3117 15.7636 15.1594 18.0039 12.5021 18.0093ZM12.5021 9.74779C10.7762 9.74779 9.37708 11.2029 9.37708 12.9978C9.37708 14.7927 10.7762 16.2478 12.5021 16.2478C14.228 16.2478 15.6271 14.7927 15.6271 12.9978C15.6231 11.2046 14.2263 9.75196 12.5021 9.74779ZM17.5021 8.97538C16.8827 8.97298 16.3822 8.44951 16.3833 7.80538C16.3845 7.16125 16.8869 6.63971 17.5062 6.63971C18.1256 6.63971 18.628 7.16124 18.6292 7.80537C18.6294 8.11614 18.5107 8.41423 18.2992 8.63377C18.0877 8.85331 17.8009 8.97624 17.5021 8.97538Z" fill="white"/>
</svg>
