<svg width="24" height="26" viewBox="0 0 24 26" fill="none" xmlns="http://www.w3.org/2000/svg">
<path d="M13 22.75H9V9.75H13V11.9167C13.8526 10.7415 15.1456 10.041 16.525 10.0068C19.0056 10.0217 21.0072 12.2085 21 14.8958V22.75H17V15.4375C16.84 14.227 15.8818 13.3289 14.753 13.3315C14.2593 13.3484 13.7932 13.5826 13.4624 13.98C13.1316 14.3774 12.9646 14.9037 13 15.4375V22.75ZM7 22.75H3V9.75H7V22.75ZM5 7.58333C3.89543 7.58333 3 6.61328 3 5.41667C3 4.22005 3.89543 3.25 5 3.25C6.10457 3.25 7 4.22005 7 5.41667C7 5.9913 6.78929 6.5424 6.41421 6.94873C6.03914 7.35506 5.53043 7.58333 5 7.58333Z" fill="white"/>
</svg>
