<svg width="24" height="26" viewBox="0 0 24 26" fill="none" xmlns="http://www.w3.org/2000/svg">
<path d="M19.995 7.24524C20.8914 6.66467 21.5622 5.7505 21.882 4.67341C21.0397 5.21486 20.118 5.59627 19.157 5.80116C17.8246 4.27423 15.7135 3.90264 14.0034 4.89403C12.2933 5.88542 11.4075 7.99435 11.841 10.0424C8.39062 9.85474 5.17598 8.08907 2.99702 5.18474C1.85986 7.30961 2.44097 10.0259 4.32502 11.3922C3.64373 11.3685 2.97754 11.1687 2.38202 10.8094C2.38202 10.8289 2.38202 10.8484 2.38202 10.8679C2.38241 13.0813 3.82239 14.9879 5.82502 15.4266C5.19308 15.6128 4.53022 15.6402 3.88702 15.5067C4.45022 17.3996 6.06057 18.6964 7.89602 18.7351C6.37585 20.0276 4.49849 20.7286 2.56602 20.7252C2.22349 20.7257 1.88123 20.7043 1.54102 20.6612C3.50341 22.0274 5.78738 22.7525 8.12002 22.7499C11.3653 22.7741 14.484 21.3881 16.7787 18.9019C19.0734 16.4158 20.3526 13.037 20.33 9.52132C20.33 9.31982 20.3257 9.11941 20.317 8.92007C21.1575 8.26206 21.8828 7.4469 22.459 6.51291C21.676 6.88889 20.8455 7.13574 19.995 7.24524Z" fill="white"/>
</svg>
